<?xml version="1.0" encoding="utf-8"?>
<!-- Generator: Adobe Illustrator 27.7.0, SVG Export Plug-In . SVG Version: 6.00 Build 0)  -->
<svg version="1.1" id="Layer_1" xmlns="http://www.w3.org/2000/svg" xmlns:xlink="http://www.w3.org/1999/xlink" x="0px" y="0px"
	 viewBox="0 0 228 48" style="enable-background:new 0 0 228 48;" xml:space="preserve">
<style type="text/css">
	.st0{fill:#FFFFFF;}
	.st1{fill-rule:evenodd;clip-rule:evenodd;fill:#FFFFFF;}
</style>
<g id="img1" transform="matrix(1,0,0,1,210,37)">
</g>
<g>
	<path id="Layer_00000041284653103224151000000000424676706142617224_" class="st0" d="M5.1,46.9l9.5-45.2h11.1l8.1,23.6l18-23.6H63
		l-9.5,45.2H42.4L48,20.7L30.2,44.2l-8.3-23.5l-5.6,26.2H5.1z"/>
	<path id="Layer_00000040567605077310889140000017866816154894274214_" class="st1" d="M85.2,47.7c-11.8,0-20.4-8.8-20.4-19.7
		c0-14.5,14.3-27.1,28.8-27.1c12,0,20.4,8.7,20.4,19.6C114,35.2,99.8,47.7,85.2,47.7z M86.1,37.4c8.6,0,16.5-8.6,16.5-16.5
		c0-5.6-4.1-9.8-9.8-9.8c-8.6,0-16.6,8.4-16.6,16.4C76.3,33.2,80.4,37.4,86.1,37.4z"/>
	<path id="Layer_00000064321128833922912990000005486781977061787019_" class="st0" d="M114,46.9l9.5-45.2h11.1l8.1,23.6l18-23.6
		H172l-9.5,45.2h-11.2l5.6-26.2l-17.8,23.5l-8.3-23.5l-5.6,26.2H114z"/>
	<path id="Layer_00000114774691025588265380000000955289440424994221_" class="st1" d="M194.2,47.7c-11.8,0-20.4-8.8-20.4-19.7
		c0-14.5,14.3-27.1,28.8-27.1c12,0,20.4,8.7,20.4,19.6C222.9,35.2,208.7,47.7,194.2,47.7z M195.1,37.4c8.6,0,16.5-8.6,16.5-16.5
		c0-5.6-4.1-9.8-9.8-9.8c-8.6,0-16.6,8.4-16.6,16.4C185.2,33.2,189.4,37.4,195.1,37.4z"/>
	<g id="img1_00000109735639568502605660000011846844142146836890_" transform="matrix(1,0,0,1,210,37)">
	</g>
</g>
</svg>
